# xmcd
#
# Track frame offsets: 
#        150
#        27443
#        50440
#        69486
#        89808
#        112424
#        133006
#        147748
#        170258
#        198121
#        216916
#        244470
#        265162
#        287454
#        309396
#        328638
#
# Disc length: 4753 seconds
#
# Revision: 3
# Processed by: cddbd v1.5.2PL0 Copyright (c) Steve Scherf et al.
# Submitted via: ExactAudioCopy v0.95b4
#
DISCID=00128f10
DTITLE=Various Artist - Cafe de la Noche (Nu-Jazz Latin Down-Tempo)
DYEAR=2005
DGENRE=Jazz
TTITLE0=Club Brazil Airlines - Voz Pra Vocer
TTITLE1=Martin East Project - Neverending (John Beltran Remix)
TTITLE2=High End - Slow Roll
TTITLE3=John Beltran - Dia Briosa
TTITLE4=Barrio Jazz Gang - Salsera
TTITLE5=Panaphonic feat. Liliana Giminez - Espuma Bossa (Acoustic Mix)
TTITLE6=Jazzamor - Fly Me to the Moon
TTITLE7=Klement Julienne - Chincha Cumbao
TTITLE8=Marcelino Galan - Fuet Damour
TTITLE9=The Tao of Groove - Cha Cha Cha
TTITLE10=Ilayali and Soulplanet Jazz Ensemble - Gotta Be Love (Latin Jaz
TTITLE10=z Mix)
TTITLE11=DJ Ino - Linda
TTITLE12=Marc Antoine - Funky Picante
TTITLE13=DJ Rain - The Duel (Vibes Remix)
TTITLE14=Cuban Jazz Combo - Evil Ways
TTITLE15=Ellie Perez - La Vida (King Britt Remix)
EXTD=
EXTT0=
EXTT1=
EXTT2=
EXTT3=
EXTT4=
EXTT5=
EXTT6=
EXTT7=
EXTT8=
EXTT9=
EXTT10=
EXTT11=
EXTT12=
EXTT13=
EXTT14=
EXTT15=
PLAYORDER=
